<svg xmlns="http://www.w3.org/2000/svg" viewBox="0 0 577.7 153.9"><defs><style>.a{fill:#253b80;}.b{fill:#179bd7;}</style></defs><title>Paypal</title><path class="a" d="M81.7,16.9h-45a6.2,6.2,0,0,0-6.1,5.3L12.4,137.4a3.3,3.3,0,0,0,.9,3,3.4,3.4,0,0,0,2.8,1.3H37.6a6.2,6.2,0,0,0,6.2-5.2l4.9-31.1a6.2,6.2,0,0,1,6.1-5.3H69c29.6,0,46.7-14.3,51.1-42.7,2-12.4.1-22.2-5.7-29S96.7,16.9,81.7,16.9ZM86.9,59C84.4,75.1,72.1,75.1,60.2,75.1H53.4L58.2,45a3.6,3.6,0,0,1,3.6-3.1h3.1c8.1,0,15.8,0,19.8,4.6,2.3,2.8,3.1,6.9,2.1,12.5ZM216,58.5H194.5a3.8,3.8,0,0,0-3.7,3.2l-.9,6-1.5-2.2c-4.6-6.8-15-9-25.4-9-23.8,0-44.1,18-48,43.2-2.1,12.6.9,24.7,8,33.1s15.9,10.9,27.1,10.9a40.9,40.9,0,0,0,29.8-12.3l-1,6a4,4,0,0,0,.9,3,3.7,3.7,0,0,0,2.8,1.3H202a6.2,6.2,0,0,0,6.2-5.3l11.6-73.6a4.4,4.4,0,0,0-.9-3.1,4,4,0,0,0-2.9-1.2Zm-30,41.9a23.9,23.9,0,0,1-24.3,20.5c-6.2,0-11.2-2-14.4-5.7s-4.4-9.1-3.4-15.1A24,24,0,0,1,168,79.4c6.1,0,11.1,2,14.3,5.8a18.8,18.8,0,0,1,3.7,15.2ZM330.6,58.5H309a6.3,6.3,0,0,0-5.2,2.7l-29.9,44L261.3,63a6.2,6.2,0,0,0-6-4.5H234.1a3.8,3.8,0,0,0-3.1,1.6,3.7,3.7,0,0,0-.5,3.4l23.9,69.9L232,164.9a3.5,3.5,0,0,0-.3,3.9,3.6,3.6,0,0,0,3.3,2.1h21.6a6,6,0,0,0,5.1-2.7l72-103.8a3.7,3.7,0,0,0,.2-3.9,3.7,3.7,0,0,0-3.3-2Zm0,0" transform="translate(-12.4 -16.9)"/><path class="b" d="M402.2,16.9h-45a6.3,6.3,0,0,0-6.1,5.3L332.9,137.4a3.6,3.6,0,0,0,.9,3,3.4,3.4,0,0,0,2.8,1.3h23.1A4.2,4.2,0,0,0,364,138l5.1-32.6a6.2,6.2,0,0,1,6.2-5.3h14.2c29.6,0,46.7-14.3,51.2-42.7,2-12.4,0-22.2-5.8-29s-17.6-11.5-32.7-11.5ZM407.4,59c-2.5,16.1-14.8,16.1-26.7,16.1h-6.8L378.7,45a3.7,3.7,0,0,1,3.7-3.1h3.1c8.1,0,15.7,0,19.7,4.6,2.4,2.8,3.1,6.9,2.2,12.5Zm129.1-.5H515a3.8,3.8,0,0,0-3.7,3.2l-.9,6-1.5-2.2c-4.7-6.8-15.1-9-25.5-9-23.7,0-44,18-48,43.3-2,12.6.9,24.6,8,33s16,11,27.1,11a41.2,41.2,0,0,0,29.8-12.4l-1,6a4,4,0,0,0,.9,3,3.9,3.9,0,0,0,2.9,1.3h19.3a6.2,6.2,0,0,0,6.2-5.3l11.6-73.6a3.3,3.3,0,0,0-.9-3,3.7,3.7,0,0,0-2.8-1.3Zm-30,41.9a23.9,23.9,0,0,1-24.3,20.5c-6.2,0-11.2-2-14.4-5.7s-4.4-9.1-3.4-15.1a24,24,0,0,1,24.1-20.7c6.1,0,11.1,2,14.3,5.8a18.5,18.5,0,0,1,3.7,15.2Zm55.4-80.3L543.4,137.4a3.3,3.3,0,0,0,.9,3,3.4,3.4,0,0,0,2.8,1.3h18.5a6.2,6.2,0,0,0,6.2-5.2L590,21.2a3.8,3.8,0,0,0-.9-3,3.7,3.7,0,0,0-2.8-1.3H565.6a3.8,3.8,0,0,0-3.7,3.2Zm0,0" transform="translate(-12.4 -16.9)"/></svg>